<svg width="125" height="57" viewBox="0 0 125 57" fill="none" xmlns="http://www.w3.org/2000/svg">
<path d="M0.45 20V5.7C0.45 5.01667 0.616667 4.4 0.95 3.85C1.28333 3.28333 1.73333 2.83333 2.3 2.5C2.86667 2.16667 3.48333 2 4.15 2H14.725C15.4083 2 16.025 2.16667 16.575 2.5C17.1417 2.83333 17.5917 3.28333 17.925 3.85C18.275 4.4 18.45 5.01667 18.45 5.7V20H14.525V14.2H4.325V20H0.45ZM4.325 10.3H14.525V5.9H4.325V10.3ZM21.1984 20V9.125C21.1984 8.475 21.3651 7.875 21.6984 7.325C22.0318 6.775 22.4734 6.33333 23.0234 6C23.5734 5.66667 24.1818 5.5 24.8484 5.5H32.8484V9.325H25.0234V20H21.1984ZM38.3709 20C37.7209 20 37.1209 19.8333 36.5709 19.5C36.0209 19.1667 35.5792 18.725 35.2459 18.175C34.9126 17.625 34.7459 17.025 34.7459 16.375V15.65H38.5709V16.175H45.6209V14.675H38.3709C37.7209 14.675 37.1209 14.5083 36.5709 14.175C36.0209 13.8417 35.5792 13.4 35.2459 12.85C34.9126 12.3 34.7459 11.7 34.7459 11.05V9.125C34.7459 8.475 34.9126 7.875 35.2459 7.325C35.5792 6.775 36.0209 6.33333 36.5709 6C37.1209 5.66667 37.7209 5.5 38.3709 5.5H45.8209C46.4876 5.5 47.0959 5.66667 47.6459 6C48.1959 6.33333 48.6376 6.775 48.9709 7.325C49.3042 7.875 49.4709 8.475 49.4709 9.125V9.85H45.6209V9.325H38.5709V10.825H45.8209C46.4876 10.825 47.0959 10.9917 47.6459 11.325C48.1959 11.6583 48.6376 12.1 48.9709 12.65C49.3042 13.2 49.4709 13.8 49.4709 14.45V16.375C49.4709 17.025 49.3042 17.625 48.9709 18.175C48.6376 18.725 48.1959 19.1667 47.6459 19.5C47.0959 19.8333 46.4876 20 45.8209 20H38.3709ZM52.0346 20V0.749999H55.8596V5.5H63.1096C63.7596 5.5 64.3596 5.66667 64.9096 6C65.4596 6.33333 65.9012 6.775 66.2346 7.325C66.5679 7.875 66.7346 8.475 66.7346 9.125V20H62.9096V9.325H55.8596V20H52.0346ZM68.6838 20V5.5H72.5088V20H68.6838ZM68.6838 4.6V0.749999H72.5088V4.6H68.6838ZM78.0461 20C77.3794 20 76.7711 19.8333 76.2211 19.5C75.6711 19.1667 75.2294 18.725 74.8961 18.175C74.5794 17.625 74.4211 17.025 74.4211 16.375V10.825H85.2961V9.325H74.4211V5.5H85.4961C86.1628 5.5 86.7711 5.66667 87.3211 6C87.8711 6.33333 88.3044 6.775 88.6211 7.325C88.9544 7.875 89.1211 8.475 89.1211 9.125V20H78.0461ZM78.2461 16.175H85.2961V14.175H78.2461V16.175Z" fill="url(#paint0_linear_184_3)"/>
<path d="M0.45 51V36.7C0.45 36.0167 0.616667 35.4 0.95 34.85C1.28333 34.2833 1.73333 33.8333 2.3 33.5C2.86667 33.1667 3.48333 33 4.15 33H14.725C15.4083 33 16.025 33.1667 16.575 33.5C17.1417 33.8333 17.5917 34.2833 17.925 34.85C18.275 35.4 18.45 36.0167 18.45 36.7V51H14.525V45.2H4.325V51H0.45ZM4.325 41.3H14.525V36.9H4.325V41.3ZM21.1984 51V40.125C21.1984 39.475 21.3651 38.875 21.6984 38.325C22.0318 37.775 22.4734 37.3333 23.0234 37C23.5734 36.6667 24.1818 36.5 24.8484 36.5H32.8484V40.325H25.0234V51H21.1984ZM36.4076 56.2V52.35H45.0076V51H37.7576C37.091 51 36.4826 50.8333 35.9326 50.5C35.3826 50.1667 34.941 49.725 34.6076 49.175C34.2743 48.625 34.1076 48.025 34.1076 47.375V36.55H37.9326V47.175H45.0076V36.55H48.8326V52.575C48.8326 53.2417 48.666 53.85 48.3326 54.4C48.016 54.95 47.5826 55.3833 47.0326 55.7C46.4826 56.0333 45.8743 56.2 45.2076 56.2H36.4076ZM54.4621 51C53.7954 51 53.1871 50.8333 52.6371 50.5C52.0871 50.1667 51.6454 49.725 51.3121 49.175C50.9954 48.625 50.8371 48.025 50.8371 47.375V41.825H61.7121V40.325H50.8371V36.5H61.9121C62.5788 36.5 63.1871 36.6667 63.7371 37C64.2871 37.3333 64.7204 37.775 65.0371 38.325C65.3704 38.875 65.5371 39.475 65.5371 40.125V51H54.4621ZM54.6621 47.175H61.7121V45.175H54.6621V47.175ZM68.0258 51V36.5H79.1008C79.7674 36.5 80.3758 36.6667 80.9258 37C81.4758 37.3333 81.9091 37.775 82.2258 38.325C82.5591 38.875 82.7258 39.475 82.7258 40.125V51H78.9008V40.325H71.8508V51H68.0258ZM85.408 51V35.375C85.408 34.725 85.5747 34.125 85.908 33.575C86.2413 33.025 86.683 32.5833 87.233 32.25C87.783 31.9167 88.3913 31.75 89.058 31.75H94.608V35.6H89.233V36.5H94.608V40.325H89.233V51H85.408ZM100.263 51C99.5962 51 98.9879 50.8333 98.4379 50.5C97.8879 50.1667 97.4462 49.725 97.1129 49.175C96.7962 48.625 96.6379 48.025 96.6379 47.375V41.825H107.513V40.325H96.6379V36.5H107.713C108.38 36.5 108.988 36.6667 109.538 37C110.088 37.3333 110.521 37.775 110.838 38.325C111.171 38.875 111.338 39.475 111.338 40.125V51H100.263ZM100.463 47.175H107.513V45.175H100.463V47.175ZM113.313 51V40.125C113.313 39.475 113.479 38.875 113.813 38.325C114.146 37.775 114.588 37.3333 115.138 37C115.688 36.6667 116.296 36.5 116.963 36.5H124.963V40.325H117.138V51H113.313Z" fill="white"/>
<defs>
<linearGradient id="paint0_linear_184_3" x1="72" y1="-5" x2="72" y2="63" gradientUnits="userSpaceOnUse">
<stop stop-color="#80A9FF"/>
<stop offset="0.605" stop-color="#2E4678" stop-opacity="0.76"/>
<stop offset="1" stop-color="#1C315C" stop-opacity="0"/>
</linearGradient>
</defs>
</svg>
